<svg width="32" height="32" viewBox="0 0 32 32" xmlns="http://www.w3.org/2000/svg">
  <!-- Background -->
  <circle cx="16" cy="16" r="15" fill="#0052CC"/>
  
  <!-- Network Nodes -->
  <circle cx="16" cy="8" r="2" fill="#FFFFFF" opacity="0.9"/>
  <circle cx="10" cy="13" r="1.5" fill="#FFFFFF" opacity="0.8"/>
  <circle cx="22" cy="13" r="1.5" fill="#FFFFFF" opacity="0.8"/>
  <circle cx="8" cy="16" r="1.5" fill="#FFFFFF" opacity="0.7"/>
  <circle cx="16" cy="16" r="2.5" fill="#FFFFFF"/>
  <circle cx="24" cy="16" r="1.5" fill="#FFFFFF" opacity="0.7"/>
  <circle cx="10" cy="22" r="1.5" fill="#FFFFFF" opacity="0.8"/>
  <circle cx="22" cy="22" r="1.5" fill="#FFFFFF" opacity="0.8"/>
  <circle cx="16" cy="24" r="2" fill="#FFFFFF" opacity="0.9"/>
  
  <!-- Connection Lines -->
  <line x1="16" y1="16" x2="16" y2="8" stroke="#FFFFFF" stroke-width="0.5" opacity="0.5"/>
  <line x1="16" y1="16" x2="10" y2="13" stroke="#FFFFFF" stroke-width="0.5" opacity="0.5"/>
  <line x1="16" y1="16" x2="22" y2="13" stroke="#FFFFFF" stroke-width="0.5" opacity="0.5"/>
  <line x1="16" y1="16" x2="8" y2="16" stroke="#FFFFFF" stroke-width="0.5" opacity="0.5"/>
  <line x1="16" y1="16" x2="24" y2="16" stroke="#FFFFFF" stroke-width="0.5" opacity="0.5"/>
  <line x1="16" y1="16" x2="10" y2="22" stroke="#FFFFFF" stroke-width="0.5" opacity="0.5"/>
  <line x1="16" y1="16" x2="22" y2="22" stroke="#FFFFFF" stroke-width="0.5" opacity="0.5"/>
  <line x1="16" y1="16" x2="16" y2="24" stroke="#FFFFFF" stroke-width="0.5" opacity="0.5"/>
  
  <!-- Center Glow -->
  <circle cx="16" cy="16" r="2.5" fill="#FFFFFF"/>
  <circle cx="16" cy="16" r="1" fill="#4285F4"/>
</svg>
